<svg width="127" height="19" viewBox="0 0 127 19" fill="none" xmlns="http://www.w3.org/2000/svg">
<path d="M0.831238 16.0602C-0.998416 12.8429 0.246618 7.79684 4.03168 4.02143C8.33002 -0.264162 14.2734 -1.28587 17.3079 1.73945C17.3114 1.74341 17.3144 1.7479 17.3193 1.75192C16.712 3.51381 14.778 7.26265 8.98091 9.28945C3.67048 11.1471 1.62197 14.1005 0.831238 16.0602ZM18.1614 2.84081C17.7014 3.91077 16.9009 5.30904 15.5215 6.68435C14.1351 8.06746 12.1645 9.42587 9.37332 10.4022C3.70834 12.3831 2.12554 15.6259 1.68391 17.1974C1.70478 17.2184 1.72272 17.2401 1.743 17.2605C4.77719 20.2859 10.7208 19.2643 15.0188 14.978C18.8433 11.1643 20.0732 6.05278 18.1614 2.84081Z" fill="#505050"/>
<path d="M27.8185 16.0602C25.9889 12.8429 27.2339 7.79684 31.019 4.02143C35.3173 -0.264162 41.2607 -1.28587 44.2952 1.73945C44.2987 1.74341 44.3017 1.7479 44.3066 1.75192C43.6993 3.51381 41.7653 7.26265 35.9682 9.28945C30.6578 11.1471 28.6093 14.1005 27.8185 16.0602ZM45.1487 2.84081C44.6887 3.91077 43.8882 5.30904 42.5088 6.68435C41.1224 8.06746 39.1518 9.42587 36.3606 10.4022C30.6956 12.3831 29.1128 15.6259 28.6712 17.1974C28.6921 17.2184 28.71 17.2401 28.7303 17.2605C31.7645 20.2859 37.7081 19.2643 42.0061 14.978C45.8306 11.1643 47.0606 6.05278 45.1487 2.84081Z" fill="#505050"/>
<path d="M54.8063 16.0602C52.9767 12.8429 54.2217 7.79684 58.0068 4.02143C62.3051 -0.264162 68.2485 -1.28587 71.283 1.73945C71.2865 1.74341 71.2895 1.7479 71.2944 1.75192C70.6871 3.51381 68.7531 7.26265 62.956 9.28945C57.6456 11.1471 55.5971 14.1005 54.8063 16.0602ZM72.1365 2.84081C71.6765 3.91077 70.8759 5.30904 69.4966 6.68435C68.1102 8.06746 66.1396 9.42587 63.3484 10.4022C57.6834 12.3831 56.1006 15.6259 55.659 17.1974C55.6799 17.2184 55.6978 17.2401 55.7181 17.2605C58.7523 20.2859 64.6959 19.2643 68.9939 14.978C72.8184 11.1643 74.0483 6.05278 72.1365 2.84081Z" fill="#505050"/>
<path d="M81.7936 16.0602C79.964 12.8429 81.209 7.79684 84.9941 4.02143C89.2924 -0.264162 95.2358 -1.28587 98.2703 1.73945C98.2738 1.74341 98.2768 1.7479 98.2817 1.75192C97.6744 3.51381 95.7404 7.26265 89.9433 9.28945C84.6329 11.1471 82.5844 14.1005 81.7936 16.0602ZM99.1238 2.84081C98.6638 3.91077 97.8633 5.30904 96.4839 6.68435C95.0975 8.06746 93.1269 9.42587 90.3357 10.4022C84.6707 12.3831 83.0879 15.6259 82.6463 17.1974C82.6672 17.2184 82.6851 17.2401 82.7054 17.2605C85.7396 20.2859 91.6832 19.2643 95.9812 14.978C99.8057 11.1643 101.036 6.05278 99.1238 2.84081Z" fill="#505050"/>
<path d="M108.781 16.0602C106.951 12.8429 108.196 7.79684 111.981 4.02143C116.28 -0.264162 122.223 -1.28587 125.258 1.73945C125.261 1.74341 125.264 1.7479 125.269 1.75192C124.662 3.51381 122.728 7.26265 116.931 9.28945C111.62 11.1471 109.572 14.1005 108.781 16.0602ZM126.111 2.84081C125.651 3.91077 124.851 5.30904 123.471 6.68435C122.085 8.06746 120.114 9.42587 117.323 10.4022C111.658 12.3831 110.075 15.6259 109.634 17.1974C109.654 17.2184 109.672 17.2401 109.693 17.2605C112.727 20.2859 118.671 19.2643 122.969 14.978C126.793 11.1643 128.023 6.05278 126.111 2.84081Z" fill="#505050"/>
</svg>
