<svg width="2629" height="310" viewBox="0 0 2629 310" fill="none" xmlns="http://www.w3.org/2000/svg">
<path fill-rule="evenodd" clip-rule="evenodd" d="M1 201.614L110.458 171.614C219.917 141.614 438.833 81.6143 657.75 57.6143C876.667 33.6143 1095.58 45.6143 1314.5 75.6143C1533.42 105.614 1752.33 153.614 1971.25 195.614C2190.17 237.614 2409.08 273.614 2518.54 291.614L2628 309.614V21.6143H2518.54C2409.08 21.6143 2190.17 21.6143 1971.25 21.6143C1752.33 21.6143 1533.42 21.6143 1314.5 21.6143C1095.58 21.6143 876.667 21.6143 657.75 21.6143C438.833 21.6143 219.917 21.6143 110.458 21.6143H1V201.614Z" fill="#F9B300"/>
<path fill-rule="evenodd" clip-rule="evenodd" d="M0 180L109.542 150C219.083 120 438.167 60 657.25 36C876.333 12 1095.42 24 1314.5 54C1533.58 84 1752.67 132 1971.75 174C2190.83 216 2409.92 252 2519.46 270L2629 288V0H2519.46C2409.92 0 2190.83 0 1971.75 0C1752.67 0 1533.58 0 1314.5 0C1095.42 0 876.333 0 657.25 0C438.167 0 219.083 0 109.542 0H0V180Z" fill="white"/>
</svg>
