<svg width="90" height="90" viewBox="0 0 90 90" fill="none" xmlns="http://www.w3.org/2000/svg">
<g filter="url(#filter0_d)">
<circle cx="45" cy="45" r="35" fill="#F9B300"/>
<path d="M43.8087 41.915C42.6887 43.0117 41.2887 43.56 39.6087 43.56C37.9287 43.56 36.517 43 35.3737 41.88C34.2537 40.76 33.6937 39.395 33.6937 37.785C33.6937 36.175 34.2537 34.81 35.3737 33.69C36.517 32.57 37.9287 32.01 39.6087 32.01C41.2887 32.01 42.6887 32.57 43.8087 33.69C44.9287 34.7867 45.4887 36.1517 45.4887 37.785C45.4887 39.4183 44.9287 40.795 43.8087 41.915ZM36.1787 53.29L52.1387 35.545L54.2737 36.735L38.2787 54.515L36.1787 53.29ZM37.9987 39.395C38.4187 39.815 38.9437 40.025 39.5737 40.025C40.2037 40.025 40.7287 39.815 41.1487 39.395C41.5687 38.9517 41.7787 38.415 41.7787 37.785C41.7787 37.155 41.5687 36.63 41.1487 36.21C40.7287 35.79 40.2037 35.58 39.5737 35.58C38.9437 35.58 38.4187 35.79 37.9987 36.21C37.602 36.63 37.4037 37.155 37.4037 37.785C37.4037 38.415 37.602 38.9517 37.9987 39.395ZM55.6387 55.74C54.5187 56.86 53.1187 57.42 51.4387 57.42C49.7587 57.42 48.3587 56.86 47.2387 55.74C46.1187 54.62 45.5587 53.255 45.5587 51.645C45.5587 50.035 46.1187 48.67 47.2387 47.55C48.3587 46.43 49.7587 45.87 51.4387 45.87C53.1187 45.87 54.5187 46.43 55.6387 47.55C56.7587 48.67 57.3187 50.035 57.3187 51.645C57.3187 53.255 56.7587 54.62 55.6387 55.74ZM49.8637 53.255C50.2837 53.675 50.8087 53.885 51.4387 53.885C52.0687 53.885 52.582 53.6633 52.9787 53.22C53.3987 52.7767 53.6087 52.2517 53.6087 51.645C53.6087 51.015 53.3987 50.49 52.9787 50.07C52.582 49.6267 52.0687 49.405 51.4387 49.405C50.8087 49.405 50.2837 49.6267 49.8637 50.07C49.467 50.49 49.2687 51.015 49.2687 51.645C49.2687 52.275 49.467 52.8117 49.8637 53.255Z" fill="black"/>
</g>
<defs>
<filter id="filter0_d" x="0" y="0" width="90" height="90" filterUnits="userSpaceOnUse" color-interpolation-filters="sRGB">
<feFlood flood-opacity="0" result="BackgroundImageFix"/>
<feColorMatrix in="SourceAlpha" type="matrix" values="0 0 0 0 0 0 0 0 0 0 0 0 0 0 0 0 0 0 127 0" result="hardAlpha"/>
<feOffset/>
<feGaussianBlur stdDeviation="5"/>
<feColorMatrix type="matrix" values="0 0 0 0 0.5625 0 0 0 0 0.5625 0 0 0 0 0.5625 0 0 0 0.25 0"/>
<feBlend mode="normal" in2="BackgroundImageFix" result="effect1_dropShadow"/>
<feBlend mode="normal" in="SourceGraphic" in2="effect1_dropShadow" result="shape"/>
</filter>
</defs>
</svg>
