<svg width="102" height="102" viewBox="0 0 102 102" fill="none" xmlns="http://www.w3.org/2000/svg">
<path d="M60.7617 51C60.7617 56.3914 56.3914 60.7617 51 60.7617C45.6086 60.7617 41.2383 56.3914 41.2383 51C41.2383 45.6086 45.6086 41.2383 51 41.2383C56.3914 41.2383 60.7617 45.6086 60.7617 51Z" fill="#F9B300"/>
<path d="M73.8292 33.7287C73.36 32.4571 72.6113 31.3061 71.6386 30.3614C70.6939 29.3887 69.5437 28.64 68.2713 28.1708C67.2394 27.77 65.6893 27.293 62.8341 27.163C59.7454 27.0222 58.8193 26.9918 51 26.9918C43.1799 26.9918 42.2538 27.0214 39.1659 27.1622C36.3107 27.293 34.7598 27.77 33.7287 28.1708C32.4563 28.64 31.3054 29.3887 30.3614 30.3614C29.3887 31.3061 28.64 32.4563 28.17 33.7287C27.7692 34.7606 27.2922 36.3115 27.1622 39.1667C27.0214 42.2546 26.991 43.1807 26.991 51.0008C26.991 58.8201 27.0214 59.7462 27.1622 62.8348C27.2922 65.69 27.7692 67.2402 28.17 68.2721C28.64 69.5445 29.3879 70.6946 30.3606 71.6394C31.3054 72.6121 32.4555 73.3607 33.7279 73.83C34.7598 74.2316 36.3107 74.7086 39.1659 74.8385C42.2538 74.9794 43.1791 75.009 50.9992 75.009C58.8201 75.009 59.7462 74.9794 62.8333 74.8385C65.6885 74.7086 67.2394 74.2316 68.2713 73.83C70.8254 72.8448 72.844 70.8262 73.8292 68.2721C74.23 67.2402 74.707 65.69 74.8378 62.8348C74.9786 59.7462 75.0082 58.8201 75.0082 51.0008C75.0082 43.1807 74.9786 42.2546 74.8378 39.1667C74.7078 36.3115 74.2308 34.7606 73.8292 33.7287ZM51 66.0379C42.6943 66.0379 35.9613 59.3057 35.9613 51C35.9613 42.6943 42.6943 35.9621 51 35.9621C59.3049 35.9621 66.0379 42.6943 66.0379 51C66.0379 59.3057 59.3049 66.0379 51 66.0379ZM66.6324 38.8819C64.6916 38.8819 63.1181 37.3084 63.1181 35.3676C63.1181 33.4267 64.6916 31.8532 66.6324 31.8532C68.5733 31.8532 70.1468 33.4267 70.1468 35.3676C70.146 37.3084 68.5733 38.8819 66.6324 38.8819Z" fill="#F9B300"/>
<path d="M51 0C22.8378 0 0 22.8378 0 51C0 79.1622 22.8378 102 51 102C79.1622 102 102 79.1622 102 51C102 22.8378 79.1622 0 51 0ZM80.1085 63.0737C79.9669 66.1912 79.4712 68.3196 78.7474 70.1826C77.2261 74.1164 74.1164 77.2261 70.1826 78.7474C68.3204 79.4712 66.1912 79.9661 63.0745 80.1085C59.9516 80.2509 58.954 80.2852 51.0008 80.2852C43.0468 80.2852 42.0499 80.2509 38.9263 80.1085C35.8096 79.9661 33.6804 79.4712 31.8182 78.7474C29.8634 78.012 28.0937 76.8595 26.6307 75.3693C25.1413 73.907 23.9887 72.1366 23.2533 70.1826C22.5296 68.3204 22.0339 66.1912 21.8923 63.0745C21.7483 59.9508 21.7148 58.9532 21.7148 51C21.7148 43.0468 21.7483 42.0492 21.8915 38.9263C22.0331 35.8088 22.5281 33.6804 23.2518 31.8174C23.9872 29.8634 25.1405 28.093 26.6307 26.6307C28.093 25.1405 29.8634 23.988 31.8174 23.2526C33.6804 22.5288 35.8088 22.0339 38.9263 21.8915C42.0492 21.7491 43.0468 21.7148 51 21.7148C58.9532 21.7148 59.9508 21.7491 63.0737 21.8923C66.1912 22.0339 68.3196 22.5288 70.1826 23.2518C72.1366 23.9872 73.907 25.1405 75.3701 26.6307C76.8595 28.0937 78.0128 29.8634 78.7474 31.8174C79.4719 33.6804 79.9669 35.8088 80.1093 38.9263C80.2517 42.0492 80.2852 43.0468 80.2852 51C80.2852 58.9532 80.2517 59.9508 80.1085 63.0737Z" fill="#F9B300"/>
</svg>
