<svg width="102" height="102" viewBox="0 0 102 102" fill="none" xmlns="http://www.w3.org/2000/svg">
<circle cx="51" cy="51" r="51" fill="#F9B300"/>
<path d="M77.5188 72.1751V64.1905C77.5513 62.8852 77.1019 61.6135 76.2562 60.6173C75.4104 59.6211 74.2273 58.9699 72.9319 58.7875C70.3715 58.4505 67.8576 57.8255 65.4381 56.9244C64.4835 56.5664 63.4462 56.4888 62.4488 56.7011C61.4515 56.9134 60.5361 57.4066 59.811 58.1221L56.4241 61.5023C49.7476 57.7135 44.2195 52.1963 40.4231 45.533L43.81 42.1528C44.527 41.4292 45.0212 40.5156 45.2339 39.5202C45.4465 38.5249 45.3689 37.4896 45.0101 36.537C44.1072 34.1222 43.481 31.6133 43.1433 29.058C42.9622 27.779 42.3212 26.6093 41.3399 25.7671C40.3586 24.9248 39.1039 24.4674 37.8096 24.4801H29.8091C29.0686 24.4808 28.3364 24.6354 27.6591 24.934C26.9818 25.2326 26.3741 25.6686 25.8749 26.2144C25.3757 26.7602 24.9958 27.4038 24.7595 28.1042C24.5231 28.8045 24.4355 29.5463 24.5021 30.2823C25.3775 38.5091 28.1823 46.4145 32.6893 53.358C36.7838 59.7887 42.2468 65.2409 48.6903 69.3273C55.6161 73.8097 63.4988 76.6083 71.7051 77.4983C72.4448 77.565 73.1903 77.4768 73.8939 77.2393C74.5975 77.0018 75.2436 76.6203 75.7909 76.1192C76.3382 75.6181 76.7746 75.0084 77.0722 74.3293C77.3697 73.6501 77.5218 72.9164 77.5188 72.1751Z" stroke="white" stroke-width="4.096" stroke-linecap="round" stroke-linejoin="round"/>
</svg>
