<svg width="1912" height="2536" viewBox="0 0 1912 2536" fill="none" xmlns="http://www.w3.org/2000/svg">
<path fill-rule="evenodd" clip-rule="evenodd" d="M448.55 1576.24C531.648 1581.66 615.301 1533.1 692.068 1572.6C779.797 1617.75 871.331 1693.11 895.475 1806.24C919.436 1918.52 841.913 2020.01 810.95 2129.67C780.85 2236.28 784.787 2363.17 716.82 2438.98C646.164 2517.79 543.57 2544.12 448.55 2533.9C358.165 2524.17 287.568 2447.1 212.347 2384.7C133.895 2319.62 19.4324 2277.71 1.85719 2163.35C-15.9102 2047.74 98.8438 1968.73 131.419 1858.11C162.202 1753.57 112.259 1604.71 185.531 1539.59C258.841 1474.43 358.229 1570.36 448.55 1576.24Z" fill="#F9B300"/>
<path fill-rule="evenodd" clip-rule="evenodd" d="M1538.15 106.532C1604.74 121.344 1678.89 88.4127 1735.86 132.654C1800.97 183.214 1865.17 260.991 1869.82 364.103C1874.43 466.438 1798.26 546.987 1758.73 640.382C1720.3 731.178 1706.77 844.046 1641.73 903.002C1574.11 964.29 1487.55 975.243 1411.94 954.735C1340.01 935.228 1292.99 858.455 1240.29 794.123C1185.33 727.028 1098.14 676.115 1098.98 572.706C1099.82 468.167 1203.18 412.019 1244.14 317.961C1282.86 229.077 1262.02 91.2172 1329.95 42.3675C1397.91 -6.50735 1465.77 90.4332 1538.15 106.532Z" fill="#F9B300"/>
</svg>
