<svg width="3554" height="2774" viewBox="0 0 3554 2774" fill="none" xmlns="http://www.w3.org/2000/svg">
<path fill-rule="evenodd" clip-rule="evenodd" d="M2861.65 222.114C2983.95 254.2 3123.59 198.457 3226.03 284.335C3343.09 382.478 3456.59 530.929 3458.01 722.09C3459.41 911.81 3312.73 1055.54 3233 1225.62C3155.5 1390.96 3122.56 1598.9 2997.98 1703.45C2868.48 1812.13 2707.39 1826.33 2568.77 1783.07C2436.91 1741.91 2355.17 1596.53 2262.04 1473.77C2164.91 1345.73 2006.98 1245.39 2015.74 1054.06C2024.59 860.645 2219.94 763.983 2302.36 592.781C2380.26 430.996 2351.28 174.39 2480.5 88.749C2609.78 3.06371 2728.71 187.239 2861.65 222.114Z" fill="#F9B300"/>
<path fill-rule="evenodd" clip-rule="evenodd" d="M602.543 2630.45C494.013 2611.2 376.882 2662.89 281.653 2599.72C172.826 2527.54 63.3975 2415.05 48.1347 2262.7C32.9868 2111.5 149.774 1989.28 206.499 1849.54C261.645 1713.68 274.971 1546.17 375.442 1456.34C479.886 1362.97 618.692 1343.3 742.205 1370.61C859.693 1396.58 941.325 1508.27 1031.18 1601.33C1124.9 1698.38 1269.37 1770.21 1275.81 1923.22C1282.32 2077.9 1119.84 2165.11 1060.85 2305.89C1005.11 2438.93 1049.1 2642.04 943.211 2717.03C837.267 2792.05 720.506 2651.36 602.543 2630.45Z" fill="#F9B300"/>
</svg>
